<svg id="visual" viewBox="0 0 900 600" width="900" height="600" xmlns="http://www.w3.org/2000/svg" xmlns:xlink="http://www.w3.org/1999/xlink" version="1.1"><rect x="0" y="0" width="900" height="600" fill="#2a303c"></rect><defs><linearGradient id="grad1_0" x1="33.3%" y1="0%" x2="100%" y2="100%"><stop offset="20%" stop-color="#2a303c" stop-opacity="1"></stop><stop offset="80%" stop-color="#2a303c" stop-opacity="1"></stop></linearGradient></defs><defs><linearGradient id="grad2_0" x1="0%" y1="0%" x2="66.7%" y2="100%"><stop offset="20%" stop-color="#2a303c" stop-opacity="1"></stop><stop offset="80%" stop-color="#2a303c" stop-opacity="1"></stop></linearGradient></defs><g transform="translate(900, 0)"><path d="M0 216.3C-18.1 218.8 -36.1 221.2 -47.8 209.6C-59.6 198 -64.9 172.5 -79.8 165.8C-94.8 159.1 -119.2 171.3 -133.4 167.3C-147.6 163.3 -151.6 143.1 -161.8 129.1C-172.1 115 -188.7 107.1 -194.9 93.9C-201.1 80.6 -197 61.9 -198.9 45.4C-200.7 28.9 -208.5 14.4 -216.3 0L0 0Z" fill="#c470db"></path></g><g transform="translate(0, 600)"><path d="M0 -216.3C14.4 -210 28.8 -203.7 46.1 -201.8C63.3 -199.9 83.3 -202.5 90.7 -188.3C98 -174.1 92.7 -143.2 107.9 -135.3C123.1 -127.3 158.9 -142.5 169.1 -134.9C179.4 -127.3 164.2 -97 163.1 -78.5C162 -60.1 175 -53.6 186.2 -42.5C197.4 -31.4 206.9 -15.7 216.3 0L0 0Z" fill="#c470db"></path></g></svg>