<svg id="visual" viewBox="0 0 900 600" width="900" height="600" xmlns="http://www.w3.org/2000/svg" xmlns:xlink="http://www.w3.org/1999/xlink" version="1.1"><rect x="0" y="0" width="900" height="600" fill="#2a303c"></rect><defs><linearGradient id="grad1_0" x1="33.3%" y1="0%" x2="100%" y2="100%"><stop offset="20%" stop-color="#2a303c" stop-opacity="1"></stop><stop offset="80%" stop-color="#2a303c" stop-opacity="1"></stop></linearGradient></defs><defs><linearGradient id="grad2_0" x1="0%" y1="0%" x2="66.7%" y2="100%"><stop offset="20%" stop-color="#2a303c" stop-opacity="1"></stop><stop offset="80%" stop-color="#2a303c" stop-opacity="1"></stop></linearGradient></defs><g transform="translate(900, 0)"><path d="M0 216.3C-12 197.7 -23.9 179.1 -40.7 178.4C-57.5 177.7 -79.1 195 -93.3 193.7C-107.5 192.4 -114.3 172.6 -129.1 161.8C-143.8 151.1 -166.5 149.6 -169.1 134.9C-171.8 120.2 -154.3 92.4 -159.5 76.8C-164.6 61.2 -192.5 57.7 -205.7 47C-219 36.2 -217.6 18.1 -216.3 0L0 0Z" fill="#c470db"></path></g><g transform="translate(0, 600)"><path d="M0 -216.3C13.7 -203.4 27.5 -190.6 42.7 -187.2C58 -183.8 74.8 -189.9 91.1 -189.2C107.4 -188.5 123.2 -180.9 134.9 -169.1C146.5 -157.4 154 -141.6 157.1 -125.3C160.3 -109 159.2 -92.3 164 -79C168.8 -65.6 179.4 -55.8 189.1 -43.2C198.8 -30.6 207.6 -15.3 216.3 0L0 0Z" fill="#c470db"></path></g></svg>