<svg id="visual" viewBox="0 0 900 600" width="900" height="600" xmlns="http://www.w3.org/2000/svg" xmlns:xlink="http://www.w3.org/1999/xlink" version="1.1"><rect x="0" y="0" width="900" height="600" fill="#2a303c"></rect><defs><linearGradient id="grad1_0" x1="33.3%" y1="100%" x2="100%" y2="0%"><stop offset="20%" stop-color="#2a303c" stop-opacity="1"></stop><stop offset="80%" stop-color="#2a303c" stop-opacity="1"></stop></linearGradient></defs><defs><linearGradient id="grad2_0" x1="0%" y1="100%" x2="66.7%" y2="0%"><stop offset="20%" stop-color="#2a303c" stop-opacity="1"></stop><stop offset="80%" stop-color="#2a303c" stop-opacity="1"></stop></linearGradient></defs><g transform="translate(900, 600)"><path d="M-216.3 0C-218.8 -18.1 -221.2 -36.1 -209.6 -47.8C-198 -59.6 -172.5 -64.9 -165.8 -79.8C-159.1 -94.8 -171.3 -119.2 -167.3 -133.4C-163.3 -147.6 -143.1 -151.6 -129.1 -161.8C-115 -172.1 -107.1 -188.7 -93.9 -194.9C-80.6 -201.1 -61.9 -197 -45.4 -198.9C-28.9 -200.7 -14.4 -208.5 0 -216.3L0 0Z" fill="#c470db"></path></g><g transform="translate(0, 0)"><path d="M216.3 0C210 14.4 203.7 28.8 201.8 46.1C199.9 63.3 202.5 83.3 188.3 90.7C174.1 98 143.2 92.7 135.3 107.9C127.3 123.1 142.5 158.9 134.9 169.1C127.3 179.4 97 164.2 78.5 163.1C60.1 162 53.6 175 42.5 186.2C31.4 197.4 15.7 206.9 0 216.3L0 0Z" fill="#c470db"></path></g></svg>