<svg id="visual" viewBox="0 0 900 600" width="900" height="600" xmlns="http://www.w3.org/2000/svg" xmlns:xlink="http://www.w3.org/1999/xlink" version="1.1"><rect x="0" y="0" width="900" height="600" fill="#2a303c"></rect><defs><linearGradient id="grad1_0" x1="33.3%" y1="100%" x2="100%" y2="0%"><stop offset="20%" stop-color="#2a303c" stop-opacity="1"></stop><stop offset="80%" stop-color="#2a303c" stop-opacity="1"></stop></linearGradient></defs><defs><linearGradient id="grad2_0" x1="0%" y1="100%" x2="66.7%" y2="0%"><stop offset="20%" stop-color="#2a303c" stop-opacity="1"></stop><stop offset="80%" stop-color="#2a303c" stop-opacity="1"></stop></linearGradient></defs><g transform="translate(900, 600)"><path d="M-216.3 0C-200.8 -13.4 -185.3 -26.9 -177.4 -40.5C-169.5 -54.1 -169.2 -67.8 -163.1 -78.5C-156.9 -89.2 -145 -96.8 -137.6 -109.7C-130.2 -122.6 -127.5 -140.8 -116.6 -146.2C-105.7 -151.6 -86.6 -144.4 -75.1 -155.9C-63.5 -167.4 -59.4 -197.7 -48.1 -210.9C-36.9 -224.1 -18.4 -220.2 0 -216.3L0 0Z" fill="#c470db"></path></g><g transform="translate(0, 0)"><path d="M216.3 0C205.7 14.4 195.1 28.8 189.1 43.2C183.1 57.5 181.8 71.9 174.8 84.2C167.8 96.5 155.2 106.8 143.9 114.7C132.5 122.6 122.4 128.1 116 145.4C109.6 162.7 107 191.8 93.9 194.9C80.8 198 57.2 175.3 39.8 174.5C22.4 173.8 11.2 195 0 216.3L0 0Z" fill="#c470db"></path></g></svg>