<svg id="visual" viewBox="0 0 900 600" width="900" height="600" xmlns="http://www.w3.org/2000/svg" xmlns:xlink="http://www.w3.org/1999/xlink" version="1.1"><rect x="0" y="0" width="900" height="600" fill="#2a303c"></rect><defs><linearGradient id="grad1_0" x1="33.3%" y1="0%" x2="100%" y2="100%"><stop offset="20%" stop-color="#2a303c" stop-opacity="1"></stop><stop offset="80%" stop-color="#2a303c" stop-opacity="1"></stop></linearGradient></defs><defs><linearGradient id="grad2_0" x1="0%" y1="0%" x2="66.7%" y2="100%"><stop offset="20%" stop-color="#2a303c" stop-opacity="1"></stop><stop offset="80%" stop-color="#2a303c" stop-opacity="1"></stop></linearGradient></defs><g transform="translate(900, 0)"><path d="M0 216.3C-15.7 209.8 -31.5 203.4 -44.7 196C-58 188.6 -68.7 180.2 -85.9 178.4C-103.1 176.5 -126.7 181.2 -134.9 169.1C-143.1 157.1 -135.8 128.4 -141.5 112.9C-147.2 97.3 -165.8 95 -179.3 86.3C-192.8 77.7 -201.3 62.6 -206.7 47.2C-212 31.7 -214.2 15.9 -216.3 0L0 0Z" fill="#c470db"></path></g><g transform="translate(0, 600)"><path d="M0 -216.3C11.4 -193.8 22.9 -171.3 38.9 -170.6C55 -170 75.8 -191.2 93.9 -194.9C112 -198.6 127.4 -184.7 133.4 -167.3C139.4 -149.9 135.9 -129.1 147 -117.2C158.1 -105.4 183.8 -102.5 187.4 -90.2C191 -78 172.4 -56.2 173.5 -39.6C174.7 -23 195.5 -11.5 216.3 0L0 0Z" fill="#c470db"></path></g></svg>