<svg id="visual" viewBox="0 0 900 600" width="900" height="600" xmlns="http://www.w3.org/2000/svg" xmlns:xlink="http://www.w3.org/1999/xlink" version="1.1"><rect x="0" y="0" width="900" height="600" fill="#2a303c"></rect><defs><linearGradient id="grad1_0" x1="33.3%" y1="100%" x2="100%" y2="0%"><stop offset="20%" stop-color="#2a303c" stop-opacity="1"></stop><stop offset="80%" stop-color="#2a303c" stop-opacity="1"></stop></linearGradient></defs><defs><linearGradient id="grad2_0" x1="0%" y1="100%" x2="66.7%" y2="0%"><stop offset="20%" stop-color="#2a303c" stop-opacity="1"></stop><stop offset="80%" stop-color="#2a303c" stop-opacity="1"></stop></linearGradient></defs><g transform="translate(900, 600)"><path d="M-216.3 0C-198.9 -12.5 -181.4 -25.1 -177.4 -40.5C-173.4 -55.9 -182.9 -74.2 -176.6 -85C-170.3 -95.8 -148.2 -99.1 -138.4 -110.4C-128.5 -121.6 -130.8 -140.8 -125.9 -157.9C-121 -175.1 -108.9 -190.1 -93.9 -194.9C-78.8 -199.7 -60.9 -194.1 -44.7 -196C-28.6 -197.8 -14.3 -207.1 0 -216.3L0 0Z" fill="#c470db"></path></g><g transform="translate(0, 0)"><path d="M216.3 0C200.2 13.1 184.2 26.2 180.4 41.2C176.6 56.2 185.1 73.1 185.6 89.4C186.1 105.7 178.7 121.5 169.1 134.9C159.5 148.3 147.8 159.4 134.1 168.1C120.3 176.8 104.6 183.2 88.9 184.7C73.3 186.2 57.5 182.7 42.7 187.2C27.9 191.6 13.9 204 0 216.3L0 0Z" fill="#c470db"></path></g></svg>